# xmcd
#
# Track frame offsets: 
#        150
#        23026
#        35738
#        48820
#        68275
#        78413
#        89048
#        100571
#        113636
#        122606
#        144149
#        160849
#        172150
#        185239
#        196852
#
# Disc length: 2826 seconds
#
# Revision: 10
# Processed by: cddbd v1.5.2PL0 Copyright (c) Steve Scherf et al.
# Submitted via: ExactAudioCopy v1.1
#
DISCID=bc0b080f
DTITLE=Various Artist - MOJO Presents Cigarettes And Alcohol
DYEAR=2007
DGENRE=Blues
TTITLE0=Gil Scott-Heron and Brian Jackson - The Bottle
TTITLE1=Tex Williams - Smoke! Smoke! Smoke! (That Cigarette)
TTITLE2=Tony Tribe - Red Red Wine
TTITLE3=Rita Marley - One Draw
TTITLE4=The Shadows - Scotch On The Socks
TTITLE5=Benny Spellman - Lipstick Traces
TTITLE6=Jerry Lee Lewis - Drinkin' Wine Spo-Dee-O-Dee
TTITLE7=Amos Milburn - One Scotch, One Bourbon, One Beer
TTITLE8=Nina Simone - Give Me A Pigfoot and A Bottle Of Beer
TTITLE9=Malcolm Middleton - Four Cigarettes
TTITLE10=Screamin' Jay Hawkins - Alligator Wine
TTITLE11=Blind Willie McTell - I Keep On Drinkin'
TTITLE12=John Lee Hooker - Whiskey And Wimmen
TTITLE13=Laurel Aitken - Drinkin' Whiskey
TTITLE14=Dinah Washington - Smoke Gets In Your Eyes
EXTD=
EXTT0=
EXTT1=
EXTT2=
EXTT3=
EXTT4=
EXTT5=
EXTT6=
EXTT7=
EXTT8=
EXTT9=
EXTT10=
EXTT11=
EXTT12=
EXTT13=
EXTT14=
PLAYORDER=
